<?xml version="1.0" encoding="utf-8"?>
<!-- Generator: Adobe Illustrator 19.2.1, SVG Export Plug-In . SVG Version: 6.00 Build 0)  -->
<svg version="1.1" id="Layer_1" xmlns="http://www.w3.org/2000/svg" xmlns:xlink="http://www.w3.org/1999/xlink" x="0px" y="0px"
	 viewBox="0 0 488 488" style="enable-background:new 0 0 488 488;" xml:space="preserve">
<style type="text/css">
	.st0{fill:#FFFFFF;stroke:#000000;stroke-width:2;stroke-miterlimit:10;}
	.st1{fill:none;}
</style>
<g>
	<path class="st0" d="M453.6,249.7c-3,32.3-30.2,57.5-63.3,57.5c-35.1,0-63.6-28.5-63.6-63.6s28.5-63.6,63.6-63.6
		c33,0,60.1,25.1,63.2,57.3H394c-3.4,0-6.2,2.8-6.2,6.2c0,3.4,2.8,6.2,6.2,6.2H453.6z"/>
	<g>
		<polygon class="st0" points="163.9,185.1 222.8,310.7 248.1,256.5 214.7,185.1 		"/>
		<polygon class="st0" points="281.6,185.1 214.7,185.1 248.1,256.5 273.5,310.7 332.3,185.1 		"/>
	</g>
	<rect x="34.5" y="229.7" class="st0" width="115.7" height="71.7"/>
	<rect x="34.5" y="184.2" class="st0" width="115.7" height="33.8"/>
</g>
<rect class="st1" width="488" height="488"/>
</svg>
