<?xml version="1.0" encoding="utf-8"?>
<!-- Generator: Adobe Illustrator 19.2.1, SVG Export Plug-In . SVG Version: 6.00 Build 0)  -->
<svg version="1.1" id="Layer_1" xmlns="http://www.w3.org/2000/svg" xmlns:xlink="http://www.w3.org/1999/xlink" x="0px" y="0px"
	 viewBox="0 0 487 231.5" style="enable-background:new 0 0 487 231.5;" xml:space="preserve">
<style type="text/css">
	.st0{fill:#FFFFFF;}
	.st1{fill:none;}
</style>
<g>
	<g>
		<g>
			<g>
				<polygon class="st0" points="163.8,34 222.9,160.1 241.5,120.3 201.3,34 				"/>
				<polygon class="st0" points="332.9,34 282,34 214.9,34 253.7,117.2 273.8,160.1 				"/>
			</g>
			<g>
				<g>
					<defs>
						<rect id="SVGID_1_" x="33" y="34" width="117.8" height="33"/>
					</defs>
					<use xlink:href="#SVGID_1_"  style="overflow:visible;fill:#FFFFFF;"/>
					<clipPath id="SVGID_2_">
						<use xlink:href="#SVGID_1_"  style="overflow:visible;"/>
					</clipPath>
				</g>
				<g>
					<defs>
						<rect id="SVGID_3_" x="33" y="79" width="117.8" height="71.8"/>
					</defs>
					<use xlink:href="#SVGID_3_"  style="overflow:visible;fill:#FFFFFF;"/>
					<clipPath id="SVGID_4_">
						<use xlink:href="#SVGID_3_"  style="overflow:visible;"/>
					</clipPath>
				</g>
			</g>
			<path class="st0" d="M453.1,98.9c-3.1,32.4-30.3,57.8-63.5,57.8c-35.2,0-63.8-28.6-63.8-63.8c0-35.3,28.6-63.8,63.8-63.8
				c33.1,0,60.3,25.2,63.5,57.5h-63.5c-3.4,0-6.2,2.8-6.2,6.2c0,3.4,2.8,6.2,6.2,6.2H453.1z"/>
		</g>
		<g>
			<path class="st0" d="M37.7,196.3h-4.3v-24.2h4.3V196.3z"/>
			<path class="st0" d="M59,171.9l15.3,15v-14.8h4.3v24.3l-0.2,0.1l-15.3-14.9v14.7h-4.3V172L59,171.9z"/>
			<path class="st0" d="M96.9,196.3v-24.2h8.5c9.2,0,12,7,12,12.1c0,5.2-2.7,12.1-12,12.1H96.9z M105.4,192.5c6.7,0,7.7-6.2,7.7-8.3
				c0-2.1-1-8.3-7.7-8.3h-4.3v16.6H105.4z"/>
			<path class="st0" d="M139.9,196.3h-4.3v-24.2h4.3V196.3z"/>
			<path class="st0" d="M164.6,186.3v6.2h12v3.8h-16.2v-24.2h16.2v3.8h-12v6.6h9.4v3.8H164.6z"/>
			<path class="st0" d="M211.9,181.4l-6.7,15h-0.3l-11.1-24.4h4.7l6.5,15.4l6.6-15.8h0.3l6.7,15.8l6.5-15.4h4.7l-11.1,24.4h-0.3
				L211.9,181.4z"/>
			<path class="st0" d="M248.7,186.3v6.2h12v3.8h-16.2v-24.2h16.2v3.8h-12v6.6h9.4v3.8H248.7z"/>
			<path class="st0" d="M295,184.1c2,0.8,3,3.2,3,5.1c0,2.9-2,7-8.5,7h-9.1v-24.2h9.1c6.5,0,8.5,4.1,8.5,7.1
				C298,181.1,297,183.3,295,184.1z M289.9,182.4c3.2-0.1,3.7-2.3,3.7-3.3c0-0.8-0.6-3.3-3.9-3.3h-5.2v6.6H289.9z M289.8,192.5
				c3.3,0,3.9-2.4,3.9-3.2c0-1.1-0.6-2.9-3.7-3h-5.4v6.2H289.8z"/>
			<path class="st0" d="M334.7,178.6c-1.3-1.6-3.9-3-6.4-3c-6.7,0-7.7,6.4-7.7,8.5s1,8.5,7.7,8.5c2.6,0,5.1-1.5,6.7-3l2.5,3.1
				c-2.4,2.4-5.2,3.8-9.1,3.8c-9.3,0-12-7.3-12-12.5c0-5.1,2.8-12.4,12-12.4c4.2,0,6.9,1.7,9.2,4.2L334.7,178.6z"/>
			<path class="st0" d="M372.4,196.3h-4.7l-2.6-6.2h-7.9l-2.6,6.2H350l11.1-24.4h0.3L372.4,196.3z M358.7,186.6h5l-2.5-6.1
				L358.7,186.6z"/>
			<path class="st0" d="M398.6,196.6l-7-14.3l-4.6,14h-4.5l8.6-24.5h0.3l7.5,16.5l7.5-16.5h0.3l8.6,24.5h-4.5l-4.6-14l-7,14.3H398.6
				z"/>
			<path class="st0" d="M434.7,196.3h-4.3v-24.2h9.1c6.5,0,8.5,4.6,8.5,7.7c0,4.7-4.2,7.8-8.1,7.8h-5.4V196.3z M439.8,183.7
				c3.2-0.1,4-2.7,4-3.9c0-1.3-0.7-3.9-4.1-3.9h-5.1v7.9H439.8z"/>
		</g>
	</g>
	<rect class="st1" width="487" height="231.5"/>
</g>
</svg>
